# xmcd
# 
# Track frame offsets:
#     150
#     23322
#     50150
#     68120
#     101347
#     129332
#     166937
#     193720
#     215035
# 
# Disc length: 3389
# 
# Revision: 3
# Processed by: cddbd v1.5.2PL0 Copyright (c) Steve Scherf et al.
# Submitted via: BonkEnc v1.0.8
# 
DISCID=760d3b09
DTITLE=John Tropea - Something Old, New, Borrowed and Blues
DYEAR=2007
DGENRE=Fusion
TTITLE0=Ol' School
TTITLE1=You Are My Heaven
TTITLE2=Donna Lee
TTITLE3=Keep On Truckin' (Baby)
TTITLE4=Cute Song
TTITLE5=Let's Get It On
TTITLE6=Cuban Nights
TTITLE7=The Long And Winding Road
TTITLE8=Close, But No Guitar
EXTD=
EXTT0=
EXTT1=
EXTT2=
EXTT3=
EXTT4=
EXTT5=
EXTT6=
EXTT7=
EXTT8=
PLAYORDER=
